<?xml version="1.0" encoding="UTF-8"?>
<!DOCTYPE svg PUBLIC "-//W3C//DTD SVG 1.1//EN" "http://www.w3.org/Graphics/SVG/1.1/DTD/svg11.dtd">
<!-- Creator: CorelDRAW 2021 (64 Bit) -->
<svg xmlns="http://www.w3.org/2000/svg" xml:space="preserve" width="126.742mm" height="126.732mm" version="1.1" style="shape-rendering:geometricPrecision; text-rendering:geometricPrecision; image-rendering:optimizeQuality; fill-rule:evenodd; clip-rule:evenodd"
viewBox="0 0 12673.12 12672.16"
 xmlns:xlink="http://www.w3.org/1999/xlink"
 xmlns:xodm="http://www.corel.com/coreldraw/odm/2003">
 <defs>
  <style type="text/css">
   <![CDATA[
    .fil0 {fill:white;fill-rule:nonzero}
   ]]>
  </style>
 </defs>
 <g id="Camada_x0020_1">
  <metadata id="CorelCorpID_0Corel-Layer"/>
  <g id="_2325813181248">
   <path class="fil0" d="M4072.31 2745.39c-45.51,40.87 -91.06,81.65 -136.56,122.44 0,0 -1.58,1.56 -3.16,4.76 -183.63,164.87 -364.19,337.42 -543.09,516.47 -188.37,186.72 -368.87,378.3 -541.53,571.33 -1.05,1.04 -2.1,1.56 -3.16,1.56l-1.57 1.64c-32.96,36.03 -65.91,73.75 -97.3,109.87 182.06,470.88 445.8,971.64 773.88,1477.06 1.58,3.15 3.15,6.3 4.73,9.45 98.88,150.69 202.48,301.36 313.9,452.04 310.8,-392.42 656.11,-780.12 1025.01,-1148.98 384.55,-384.6 769.16,-725.22 1148.98,-1026.54 -158.56,-114.58 -317.05,-222.93 -470.89,-321.78l-1.57 -1.65c-528.99,-342.18 -1026.59,-596.48 -1467.67,-767.57l0 -0.09z"/>
   <path class="fil0" d="M790.05 11882.59c516.45,516.45 1240.05,789.57 2095.53,789.57 912.01,0 1968.42,-313.96 3053.05,-880.63 131.84,-69.07 265.26,-141.29 397.16,-219.76 645.13,-368.91 1296.56,-825.68 1929.16,-1356.24 113.05,-94.21 224.47,-191.52 335.89,-290.41 230.7,-204.05 458.39,-419.07 681.23,-641.98 224.49,-224.48 439.48,-452.1 643.58,-684.4 100.5,-109.9 196.23,-221.32 288.79,-334.32 527.44,-629.45 985.84,-1279.3 1357.83,-1927.59 78.46,-133.42 152.26,-268.41 221.3,-401.88 189.92,-362.6 351.59,-722.02 483.46,-1075.24 640.46,-1729.82 500.74,-3175.52 -393.95,-4070.2 -518.02,-516.39 -1241.61,-789.52 -2095.5,-789.52 -853.9,0 -1747.09,251.11 -2710.87,709.51 -9.39,4.66 -17.26,7.86 -25.09,10.97 -3.15,3.11 -7.87,4.67 -9.4,4.67 -3.14,1.64 -6.3,3.19 -7.87,4.75l-1.57 0c-98.88,48.65 -199.33,98.85 -299.78,150.7 656.11,392.39 1315.4,868.07 1951.06,1415.81 0,0 1.64,0 3.19,-1.55 0,0 1.56,0 4.76,-1.56 4.66,0 9.42,-1.55 18.84,-4.75 414.42,-139.64 778.54,-205.57 1076.83,-205.57 200.89,0 472.4,31.37 621.54,180.51 194.68,194.59 295.09,758.15 -34.57,1725.07 -15.64,48.7 -32.92,97.39 -51.76,147.63 -33.01,89.48 -69.12,178.92 -108.36,269.98 -262.16,621.56 -649.88,1280.87 -1131.7,1930.73 -80.1,108.33 -163.32,216.6 -248.08,323.35 -310.78,394 -656.09,780.12 -1024.93,1148.99 -384.61,384.6 -769.17,726.75 -1147.47,1026.59 -109.89,87.9 -218.22,171.1 -324.92,251.14 -687.54,508.57 -1345.22,882.15 -1930.74,1128.62 -144.43,61.19 -282.52,112.99 -417.56,158.55 -423.81,144.45 -798.97,215.03 -1103.49,215.03 -202.48,0 -474.04,-31.39 -623.15,-180.54 -193.08,-193.03 -293.54,-750.32 26.67,-1699.96 3.15,-9.46 4.72,-14.12 4.72,-18.85 1.58,-1.57 1.58,-3.15 1.58,-4.73 1.58,-1.57 1.58,-3.14 1.58,-3.14 -544.68,-631.03 -1021.87,-1287.18 -1419.02,-1944.86 -92.63,175.78 -177.4,350.02 -255.86,524.27l0 1.58c-1.05,1.06 -1.58,2.08 -1.58,3.14 -1.57,3.16 -3.15,7.82 -4.72,12.55 -4.73,7.87 -9.45,20.42 -15.7,34.54 -75.36,167.95 -142.86,334.32 -204.05,499.17 -640.42,1729.84 -500.75,3175.51 394,4070.21l-0.05 0.05z"/>
   <path class="fil0" d="M396.11 4859.78c130.27,353.16 291.97,712.63 481.91,1075.24 69.06,133.47 142.86,268.4 221.32,401.87 372.01,648.29 830.35,1298.14 1357.77,1927.59 92.64,113.05 188.37,224.48 288.83,334.33 177.4,202.47 362.61,401.87 555.65,596.48 28.24,29.81 50.23,51.8 65.91,65.91 3.15,3.15 7.88,7.88 12.54,10.97l0 1.58c3.16,1.58 4.73,3.15 6.3,6.29 1.58,1.58 3.16,3.16 3.16,3.16 224.47,224.47 452.09,437.93 682.81,641.99 571.34,-219.75 1236.9,-580.79 1938.56,-1089.36 -378.31,-301.37 -762.87,-642 -1147.41,-1026.59 -370.43,-368.87 -714.21,-756.62 -1025.01,-1150.56 -86.33,-106.75 -167.95,-215.02 -247.99,-321.78 -481.91,-649.86 -871.18,-1309.11 -1133.35,-1930.73 -39.26,-91.06 -75.36,-180.54 -108.32,-269.98 -18.85,-50.24 -36.11,-98.89 -51.81,-145.99 -329.65,-966.91 -229.15,-1532.03 -34.54,-1726.71 149.11,-149.15 420.66,-180.51 623.15,-180.51 304.51,0 678.1,69.04 1101.91,213.43 134.99,45.46 274.71,98.85 419.13,160.12 585.47,246.44 1243.19,620.08 1930.74,1130.24 106.75,78.45 215.03,161.67 323.35,249.55 378.31,299.76 764.44,641.97 1149.04,1026.56 368.85,368.86 714.2,756.57 1023.42,1148.99 478.79,-657.68 855.54,-1323.24 1092.56,-1938.57 -204.1,-232.33 -419.08,-461.48 -643.58,-684.42 0,0 -1.55,0 -3.2,-1.55l-7.77 -7.87c-14.18,-15.72 -39.32,-40.87 -76.99,-78.45 -194.59,-193.12 -393.94,-376.75 -594.88,-554.14 -111.47,-100.41 -221.32,-196.23 -334.32,-290.43 -632.6,-530.55 -1284.03,-987.31 -1929.16,-1356.19 -131.85,-78.46 -265.26,-150.7 -397.16,-219.74 -1084.69,-566.58 -2141.09,-880.51 -3053.1,-880.51 -855.44,0 -1579.09,273.14 -2095.53,789.6 -894.7,894.69 -1034.41,2340.3 -393.95,4070.18z"/>
   <path class="fil0" d="M8162.93 12394.3c572.97,182.07 1120.72,277.86 1624.65,277.86 853.9,0 1577.49,-273.13 2095.5,-789.57 857.1,-857.07 1021.87,-2221.12 469.38,-3856.75 -23.6,-70.65 -48.66,-141.29 -75.35,-213.46 -131.86,-353.16 -293.53,-712.62 -483.46,-1075.24 -395.58,657.67 -872.82,1313.84 -1419.01,1944.86 329.65,965.34 229.16,1532.01 34.48,1726.68 -149.05,149.11 -420.63,180.54 -621.54,180.54 -304.5,0 -679.69,-70.63 -1105.09,-215.03 -635.72,547.83 -1293.39,1025.02 -1949.56,1417.45 486.63,254.28 963.82,456.76 1428.42,602.77l1.57 0 0 -0.1z"/>
  </g>
 </g>
</svg>
